<svg width="49" height="49" fill="none" xmlns="http://www.w3.org/2000/svg"><path d="M24.5 36.88c-5.683 0-10.29-4.606-10.29-10.289C14.21 16.16 24.5 10.56 24.5 10.56m0 26.322c5.683 0 10.29-4.607 10.29-10.29C34.79 16.16 24.5 10.56 24.5 10.56m0 26.322V10.559m9.858 12.393L24.5 30.627l-9.858-7.675m16.526-6.509L24.5 21.635l-6.668-5.192M45.149 3.06l-8.902 1.093 1.093 8.902M3.851 45.94l8.902-1.093-1.093-8.902m6.76 11.249c12.532 3.358 25.415-4.08 28.774-16.613C50.007 20.079 45.242 9.332 36.25 4.148m-5.67-2.342C18.049-1.552 5.166 5.886 1.807 18.42-1.007 28.921 3.758 39.668 12.75 44.852" stroke="#000" stroke-width="1.8" stroke-linecap="round" stroke-linejoin="round"/></svg>