<svg width="48" height="56" fill="none" xmlns="http://www.w3.org/2000/svg"><circle cx="20.5" cy="35.5" r="20.5" fill="#FFE498"/><path d="M29.052 12.569v7.655L26.5 17.672l-2.552 2.552V12.57m21.483 1.275C46.388 16.21 47 18.793 47 21.5 47 32.775 37.775 42 26.5 42c-6.31 0-12.21-3.03-15.967-7.535m-2.964-5.31C6.612 26.792 6 24.208 6 21.5 6 10.225 15.225 1 26.5 1c6.242 0 12.085 2.966 15.847 7.392m-5.02-1.328L42.74 8.87l-1.805-5.413m-28.87 36.089L10.26 34.13l5.413 1.805m21.035-5.504H16.293V12.569h20.415v17.863z" stroke="#000" stroke-width="1.5" stroke-miterlimit="22.926" stroke-linecap="round" stroke-linejoin="round"/></svg>