<svg width="39" height="47" fill="none" xmlns="http://www.w3.org/2000/svg"><path d="M34.056 7.826h1.897c1.13 0 2.047.925 2.047 2.067v9.227a2.057 2.057 0 01-2.047 2.067h-18.63v5.354m13.743-11.528H3.58c-1.425 0-2.58-1.168-2.58-2.609V3.609C1 2.17 2.155 1 3.58 1h27.486c1.425 0 2.58 1.168 2.58 2.61v8.794c0 1.441-1.155 2.61-2.58 2.61zM18.82 46h-2.997a1.94 1.94 0 01-1.928-1.95V26.937h6.854v17.111A1.94 1.94 0 0118.821 46z" stroke="#000" stroke-width="1.8" stroke-linecap="round" stroke-linejoin="round"/></svg>