<svg width="48" height="56" fill="none" xmlns="http://www.w3.org/2000/svg"><circle cx="20.754" cy="35.5" r="20.5" fill="#FFE498"/><path d="M19.203 31.576H15.73a3.475 3.475 0 01-3.475-3.474V4.475A3.475 3.475 0 0115.73 1h27.797A3.474 3.474 0 0147 4.474v23.628a3.474 3.474 0 01-3.474 3.474H40.05m-20.848 0C19.203 37.333 23.87 42 29.627 42s10.424-4.667 10.424-10.424m-20.848 0c0-5.757 4.667-10.424 10.424-10.424s10.424 4.667 10.424 10.424M33.101 1v10.424l-3.474-3.475-3.474 3.475V1m3.474 25.364v5.212h5.212" stroke="#000" stroke-width="1.5" stroke-miterlimit="22.926" stroke-linecap="round" stroke-linejoin="round"/></svg>