<svg width="48" height="50" fill="none" xmlns="http://www.w3.org/2000/svg"><circle cx="20.5" cy="29.5" r="20.5" fill="#FFE498"/><path d="M8.637 2.786v26.71M6 3.722l2.637-2.467 2.637 2.467M6 28.645l2.637 2.467 2.637-2.467m34.195 10.718H16.292m28.241-2.637L47 39.363 44.533 42m-26.582-5.274l-2.467 2.637L17.951 42M31.434 6.529l3.528 5.629 6.444 1.617-4.263 5.095.454 6.628-6.163-2.48-6.164 2.48.454-6.628-4.263-5.096 6.444-1.616 3.529-5.629zM15.867 31.112H47V1H15.867v30.112z" stroke="#000" stroke-width="1.5" stroke-miterlimit="22.926" stroke-linecap="round" stroke-linejoin="round"/></svg>