<svg width="49" height="47" fill="none" xmlns="http://www.w3.org/2000/svg"><path d="M34.262 21.328c.624-2.012-.456-4.164-2.413-4.806L17.06 11.67c-1.957-.642-4.049.469-4.673 2.481L7.865 28.723c-.625 2.012.456 4.163 2.412 4.806M1 30.555l24.01 7.787c1.954.64 4.044-.467 4.668-2.474l9.846-30.897C40.264 2.605 42.41 1 44.83 1H48M24.314 22.07l-4.273-1.335m12.717 21.19c-.14-2.1-1.913-3.687-3.96-3.543-2.047.144-3.593 1.964-3.453 4.065.14 2.101 1.913 3.688 3.96 3.544 2.047-.144 3.593-1.964 3.453-4.065z" stroke="#000" stroke-width="1.8" stroke-linecap="round" stroke-linejoin="round"/></svg>