<svg width="58" height="28" fill="none" xmlns="http://www.w3.org/2000/svg"><g clip-path="url(#clip0_146_2947)"><path d="M46.65 6.415l2.318 2.708 2.23-2.708h4.765l-4.656 5.552 4.72 5.599H51.07l-2.296-2.73-2.274 2.73h-4.786l4.678-5.575-4.678-5.576h4.936zm-4.936 0v3.767h-5.299v3.458h5.299v3.926h-9.192V0h9.192v3.915h-5.299v2.5h5.299z" fill="#FF5900"/><path d="M28.644 0v7.189h-.042c-.86-1.047-1.932-1.41-3.176-1.41-2.55 0-4.47 1.838-5.144 4.268-.77-2.677-2.752-4.32-5.692-4.32-2.387 0-4.272 1.137-5.256 2.99V6.415H4.399v-2.5h5.385V0H0v17.566h4.399v-7.384h4.385a7.398 7.398 0 00-.201 1.737c0 3.664 2.64 6.235 6.007 6.235 2.833 0 4.7-1.41 5.686-3.981h-3.77c-.51.773-.896 1.002-1.916 1.002-1.182 0-2.201-1.094-2.201-2.39h7.676c.333 2.91 2.47 5.42 5.404 5.42 1.265 0 2.424-.66 3.132-1.775h.043v1.138h3.877V0h-3.877zM12.512 10.234c.244-1.116 1.06-1.844 2.079-1.844 1.121 0 1.896.706 2.1 1.844h-4.18zm13.779 4.658c-1.43 0-2.319-1.413-2.319-2.888 0-1.576.773-3.093 2.319-3.093 1.602 0 2.24 1.517 2.24 3.093 0 1.495-.676 2.888-2.24 2.888zm6.232 11.458v-6.296h3.28v.47h-2.739v2.321h2.623v.47h-2.623v2.563h2.86v.47l-3.4.001zm3.792 0l1.599-2.261-1.517-2.139h.615l1.238 1.748 1.213-1.748h.615l-1.541 2.139 1.606 2.26h-.623l-1.328-1.87-1.262 1.87h-.615zM41.184 28h-.5v-4.737c0-.435 0-.877-.026-1.313h.493l.016.661c.31-.522.72-.765 1.336-.765 1.279 0 1.827 1.121 1.827 2.303 0 1.183-.548 2.304-1.827 2.304-.574 0-1.025-.234-1.32-.74V28zm2.614-3.851c0-.939-.37-1.86-1.352-1.86-.926 0-1.262.808-1.262 1.86s.336 1.86 1.262 1.86c.983 0 1.352-.92 1.352-1.86zm3.104-1.791c-.828 0-1.116.74-1.116 1.504v2.487h-.5v-3.105c0-.425-.008-.859-.024-1.294h.493l.032.635c.246-.504.657-.739 1.205-.739.074 0 .156.008.23.017v.531c-.115-.019-.206-.036-.32-.036zm.931 1.887c0 .99.442 1.807 1.352 1.807.704 0 1.033-.495 1.156-.99h.475c-.222.92-.755 1.391-1.697 1.391-1.262 0-1.82-.991-1.82-2.225 0-1.26.582-2.382 1.885-2.382 1.32 0 1.672 1.225 1.672 2.399h-3.023zm.016-.4h2.475c0-.86-.384-1.6-1.172-1.6-.712 0-1.205.573-1.303 1.6zm4.961 2.608c-.853 0-1.492-.426-1.492-1.391h.5c0 .66.41.99 1.017.99.566 0 1.008-.287 1.008-.876 0-.531-.516-.67-1.057-.836-.655-.2-1.369-.417-1.369-1.269 0-.947.746-1.225 1.443-1.225.802 0 1.401.33 1.425 1.242h-.5c-.024-.52-.377-.816-.91-.816-.417 0-.926.173-.926.747 0 .523.509.67 1.05.826.656.19 1.377.4 1.377 1.252-.001.99-.722 1.356-1.567 1.356zm3.467 0c-.853 0-1.492-.426-1.492-1.391h.5c0 .66.41.99 1.018.99.565 0 1.007-.287 1.007-.876 0-.531-.516-.67-1.057-.836-.656-.2-1.368-.417-1.368-1.269 0-.947.745-1.225 1.442-1.225.803 0 1.402.33 1.426 1.242h-.5c-.025-.52-.377-.816-.91-.816-.418 0-.926.173-.926.747 0 .523.508.67 1.05.826.656.19 1.377.4 1.377 1.252-.002.99-.723 1.356-1.567 1.356z" fill="#2A007C"/></g><defs><clipPath id="clip0_146_2947"><path fill="#fff" d="M0 0h58v28H0z"/></clipPath></defs></svg>