<svg width="68" height="29" fill="none" xmlns="http://www.w3.org/2000/svg"><g clip-path="url(#clip0_146_2723)" fill-rule="evenodd" clip-rule="evenodd"><path d="M43.755 22.887c-1.238.35-2.85.497-4.232.497-3.598 0-5.959-1.9-5.959-5.378 0-3.303 2.217-5.437 5.441-5.437.72 0 1.497.088 1.957.321V8.097h2.793v14.79zm-2.793-7.541c-.431-.205-1.036-.322-1.727-.322-1.698 0-2.82 1.053-2.82 2.894 0 1.958 1.208 3.07 3.194 3.07.346 0 .893 0 1.353-.118v-5.524zm25.736 7.541c-1.238.35-2.85.497-4.26.497-3.57 0-5.96-1.9-5.96-5.378 0-3.303 2.217-5.437 5.441-5.437.749 0 1.497.088 1.958.321V8.097h2.82v14.79zm-2.821-7.541c-.432-.205-1.008-.322-1.699-.322-1.727 0-2.85 1.053-2.85 2.894 0 1.958 1.238 3.07 3.224 3.07.346 0 .864 0 1.325-.118v-5.524zm-15.718 0c.46-.205 1.123-.263 1.67-.263 1.727 0 2.907.993 2.907 2.777 0 2.104-1.324 3.069-3.08 3.098v2.426h.144c3.627 0 5.786-2.017 5.786-5.612 0-3.274-2.303-5.203-5.7-5.203-1.727 0-3.425.41-4.548.877V27.33h2.821V15.346z" fill="#3F3F42"/><path d="M23.26 5.817l.46.526.26-.146-.72-.38z" fill="#DC0032"/><path d="M22.568 5.437l.893 1.052.316-.175-.345-.41-.864-.467z" fill="#DC0032"/><path d="M21.85 5.057l1.353 1.578.316-.175-.777-.935-.892-.468z" fill="#DC0032"/><path d="M21.158 4.677l1.785 2.104.317-.175-1.238-1.462-.864-.467zm3.426 3.712l-.202.117.202.234v-.351z" fill="#DC0032"/><path d="M20.467 4.297l2.216 2.63.317-.175-1.67-1.987-.863-.468zm4.001 4.15l-.317.205.432.526v-.555l-.115-.175z" fill="#DC0032"/><path d="M19.748 3.917l2.677 3.157.346-.176-2.13-2.514-.893-.467zm4.462 4.677l-.317.204.691.819V9.06l-.374-.467z" fill="#DC0032"/><path d="M19.057 3.537l3.137 3.683.317-.176-2.59-3.04-.864-.467zm4.893 5.232l-.316.175.95 1.14V9.53l-.634-.76z" fill="#DC0032"/><path d="M18.365 3.157l3.57 4.209.316-.176-3.022-3.566-.864-.467zm5.326 5.758l-.317.175 1.21 1.433v-.556l-.893-1.052z" fill="#DC0032"/><path d="M17.646 2.777l4.03 4.735.317-.175-3.454-4.092-.893-.468zm5.787 6.284l-.317.176 1.468 1.724v-.555L23.433 9.06z" fill="#DC0032"/><path d="M16.955 2.397l4.462 5.29.317-.204-3.915-4.618-.864-.468zm6.218 6.81l-.317.176 1.727 2.046v-.555l-1.41-1.666z" fill="#DC0032"/><path d="M16.236 2.017l4.923 5.817.317-.205-4.347-5.144-.893-.468zm6.708 7.337l-.346.175 1.986 2.338v-.555l-1.64-1.958z" fill="#DC0032"/><path d="M15.545 1.637l5.354 6.343.346-.205-4.808-5.67-.892-.468zM22.684 9.5l-.317.175 2.217 2.66v-.585l-1.9-2.25z" fill="#DC0032"/><path d="M14.854 1.257l5.814 6.869.317-.205-5.268-6.196-.864-.468zm7.57 8.389l-.316.175 2.475 2.952v-.555l-2.159-2.572z" fill="#DC0032"/><path d="M14.135.848l6.275 7.424.317-.205-5.7-6.722-.892-.497zm8.031 8.944l-.316.175 2.734 3.245v-.555l-2.418-2.865z" fill="#DC0032"/><path d="M13.443.468l6.708 7.95.316-.175L14.336.965l-.893-.497zm8.464 9.47l-.317.176 2.994 3.566v-.585l-2.677-3.157z" fill="#DC0032"/><path d="M12.752.117l7.139 8.447.317-.175L13.616.585l-.864-.468zm8.895 9.967l-.317.176 3.253 3.858v-.555l-2.936-3.479z" fill="#DC0032"/><path d="M12.291 0l7.34 8.71.317-.175-7.024-8.33-.172-.088A.835.835 0 0012.29 0zm9.096 10.23l-.316.176 3.512 4.15v-.555l-3.195-3.77z" fill="#DC0032"/><path d="M12.293 0c-.115 0-.23.03-.346.058l7.427 8.799.346-.176L12.38 0h-.087zm8.866 10.377l-.317.175 3.742 4.472v-.584l-3.425-4.063z" fill="#DC0032"/><path d="M12.033.03c-.058.029-.144.058-.173.087l-.172.088 7.455 8.798.317-.175L12.033.029zm8.866 10.493l-.317.204 4.002 4.736v-.556l-3.685-4.384z" fill="#DC0032"/><path d="M11.744.146l-.316.176 7.455 8.827.317-.175L11.744.146zM20.64 10.67l-.316.205 4.26 5.027v-.555L20.64 10.67z" fill="#DC0032"/><path d="M11.487.292l-.317.176 7.456 8.827.316-.175L11.487.292zm8.895 10.523l-.317.205 4.52 5.349v-.556l-4.203-4.998z" fill="#DC0032"/><path d="M11.227.438l-.317.176 7.456 8.827.317-.175L11.227.438zm8.895 10.523l-.317.205 4.779 5.641v-.555l-4.462-5.29z" fill="#DC0032"/><path d="M10.967.585L10.65.76l7.456 8.828.317-.176L10.967.585zm8.895 10.523l-.317.204 5.038 5.934v-.556l-4.721-5.583z" fill="#DC0032"/><path d="M10.71.73l-.317.176 7.455 8.828.317-.176L10.709.731zm8.923 10.524l-.317.204 5.268 6.255v-.555l-4.951-5.905z" fill="#DC0032"/><path d="M10.45.848l-.317.204 7.484 8.828.317-.176L10.449.848zm8.923 10.58l-.316.176 5.527 6.548v-.556l-5.21-6.167z" fill="#DC0032"/><path d="M10.19.994l-.317.175 7.485 8.857.316-.175L10.19.994zm8.923 10.581l-.316.176 5.786 6.868v-.584l-5.47-6.46z" fill="#DC0032"/><path d="M9.932 1.14l-.317.175 7.485 8.886.316-.204L9.932 1.14zm8.924 10.581l-.317.175 6.045 7.162v-.555l-5.728-6.782z" fill="#DC0032"/><path d="M9.672 1.286l-.317.176 7.485 8.885.317-.204-7.485-8.857zm8.924 10.581l-.317.176 6.305 7.453v-.555l-5.988-7.074z" fill="#DC0032"/><path d="M9.412 1.432l-.316.176 7.484 8.886.317-.205-7.485-8.857zm8.924 10.582l-.316.175 6.563 7.775v-.584l-6.247-7.366z" fill="#DC0032"/><path d="M9.155 1.578l-.317.176 7.484 8.886.317-.205-7.484-8.857zm8.952 10.582l-.316.175 6.793 8.067v-.555l-6.477-7.687z" fill="#DC0032"/><path d="M8.894 1.695l-.345.176 7.542 8.915.316-.205-7.513-8.886zm8.953 10.61l-.317.176 7.053 8.36v-.556l-6.736-7.98z" fill="#DC0032"/><path d="M8.636 1.842l-.345.175 7.57 8.944a.226.226 0 01.116-.117l.173-.117-7.514-8.885zm8.953 10.61l-.317.175 7.255 8.594c.028-.088.057-.175.057-.263v-.234l-6.995-8.272z" fill="#DC0032"/><path d="M8.377 1.988l-.346.175 7.744 9.149v-.117c0-.088.057-.205.115-.292L8.377 1.988zm8.952 10.61l-.23.146c-.029 0-.058.03-.086.03l7.369 8.74a.996.996 0 00.173-.352l-7.226-8.564z" fill="#DC0032"/><path d="M8.117 2.134l-.346.175 8.003 9.47v-.584L8.117 2.134zm8.406 10.493l7.657 9.09c.086-.058.172-.174.259-.262l-7.37-8.71a.485.485 0 01-.402 0l-.144-.118z" fill="#DC0032"/><path d="M7.86 2.28l-.346.175 16.408 19.41.23-.118.087-.087-7.543-8.916h-.028l-.662-.409c-.058-.03-.087-.088-.144-.146-.058-.088-.058-.146-.087-.205v-.321L7.86 2.28z" fill="#DC0032"/><path d="M7.6 2.426l-.346.175 16.408 19.41.317-.176L7.599 2.426z" fill="#DC0032"/><path d="M7.342 2.543l-.346.175 16.437 19.438.317-.175L7.342 2.543z" fill="#DC0032"/><path d="M7.082 2.69l-.346.175 16.437 19.438.317-.176L7.082 2.69z" fill="#DC0032"/><path d="M6.822 2.835l-.345.176 16.437 19.438.316-.176L6.822 2.835z" fill="#DC0032"/><path d="M6.535 2.981l-.316.176 16.437 19.467.317-.205L6.535 2.981z" fill="#DC0032"/><path d="M6.276 3.128l-.317.175L22.396 22.77l.317-.204L6.276 3.128z" fill="#DC0032"/><path d="M6.016 3.274l-.317.175 16.466 19.467.317-.204L6.016 3.274z" fill="#DC0032"/><path d="M5.758 3.39l-.317.176 16.466 19.496.317-.204L5.758 3.39z" fill="#DC0032"/><path d="M5.498 3.537l-.316.175L21.647 23.21l.317-.176L5.498 3.537z" fill="#DC0032"/><path d="M5.239 3.683l-.317.175 8.003 9.47.259.176c.115.059.23.205.23.35v.03l7.974 9.47.316-.175L5.24 3.683z" fill="#DC0032"/><path d="M4.98 3.83l-.316.174 7.513 8.916.95.526-8.146-9.617zm8.406 9.937c0 .03.03.059.03.088v.497L21.13 23.5l.317-.175-8.06-9.559z" fill="#DC0032"/><path d="M4.721 3.975l-.317.176 7.024 8.33.95.526-7.657-9.032zm8.693 10.26v.555l7.485 8.857.317-.175-7.802-9.237z" fill="#DC0032"/><path d="M4.461 4.121l-.316.176 6.563 7.746.921.526L4.461 4.12zm8.953 10.552v.585l7.225 8.535.317-.175-7.542-8.945z" fill="#DC0032"/><path d="M4.203 4.238l-.316.176 6.074 7.19.92.556-6.678-7.922zm9.212 10.903v.555l6.966 8.243.317-.175-7.283-8.623z" fill="#DC0032"/><path d="M3.944 4.385l-.317.175 5.585 6.606.92.555-6.188-7.336zm9.47 11.195v.555l6.708 7.95.316-.175-7.024-8.33z" fill="#DC0032"/><path d="M3.684 4.53l-.317.176 5.095 6.05.922.527-5.7-6.752zm9.73 11.488v.584l6.448 7.659.317-.205-6.765-8.038z" fill="#DC0032"/><path d="M3.426 4.677l-.317.175 4.606 5.466.921.526-5.21-6.167zm9.989 11.809v.555l6.218 7.366.316-.205-6.534-7.716z" fill="#DC0032"/><path d="M3.166 4.823l-.316.175L6.966 9.88l.95.526-4.75-5.583zm10.248 12.101v.556l5.959 7.073.317-.204-6.276-7.425z" fill="#DC0032"/><path d="M2.906 4.969l-.316.175 3.627 4.297.95.556-4.26-5.028zm7.542 9.47l.749.877v-.321c0-.059-.058-.146-.115-.175l-.634-.38zm2.966 2.924v.584l5.7 6.752.316-.204-6.016-7.133z" fill="#DB0032"/><path d="M2.649 5.086l-.317.175L5.47 9.003l.95.555-3.771-4.472zM9.7 14l1.497 1.754v-.556l-.547-.643L9.7 14zm3.714 3.83v.555l5.44 6.46.317-.176-5.757-6.84z" fill="#DC0032"/><path d="M2.389 5.232l-.317.176L4.75 8.594l.922.526L2.39 5.232zm6.563 8.36l2.246 2.63v-.555l-1.296-1.549-.95-.526zm4.462 4.677v.555l5.182 6.168.316-.176-5.498-6.547z" fill="#DC0032"/><path d="M2.131 5.378l-.317.176 2.188 2.601.921.526-2.792-3.303zm6.103 7.776l2.965 3.507v-.555L9.155 13.68l-.921-.526zm5.181 5.582v.556l4.952 5.846.316-.176-5.268-6.226z" fill="#DC0032"/><path d="M1.871 5.524l-.316.176 1.698 2.017.921.526-2.303-2.719zm5.614 7.191l3.713 4.384v-.555L8.406 13.27l-.921-.555zm5.93 6.46v.555l4.692 5.554.317-.175-5.01-5.934z" fill="#DC0032"/><path d="M1.612 5.67l-.317.176 1.209 1.432.921.556L1.612 5.67zm5.124 6.607l4.462 5.29v-.555l-3.541-4.18-.921-.555zm6.678 7.336v.556l4.433 5.261.317-.175-4.75-5.642z" fill="#DC0032"/><path d="M1.354 5.817l-.317.175.72.848.95.555-1.353-1.578zm4.634 6.05l5.21 6.139v-.556L6.91 12.393l-.922-.526zm7.427 8.214v.555l4.174 4.94.317-.175-4.49-5.32z" fill="#DC0032"/><path d="M1.093 5.934l-.345.175.26.322.95.526-.865-1.023zm4.146 5.495l5.958 7.044v-.584L6.19 11.955l-.95-.526zm8.175 9.09v.556l3.915 4.677.317-.205-4.232-5.028z" fill="#DC0032"/><path d="M.834 6.08l-.201.117.576.321-.375-.438zm3.656 4.91l6.707 7.922v-.556l-5.757-6.81-.95-.555zm8.924 9.968v.585l3.685 4.355.316-.205-4.001-4.735z" fill="#DC0032"/><path d="M3.771 10.552l7.427 8.798v-.555l-6.505-7.688-.922-.555zm9.644 10.873v.556l3.425 4.063.317-.205-3.742-4.413z" fill="#DC0032"/><path d="M3.023 10.143l8.176 9.675v-.585L3.945 10.67l-.922-.526zm10.392 11.721v.555l3.167 3.771.316-.205-3.483-4.121z" fill="#DC0032"/><path d="M2.273 9.704l8.924 10.552v-.555l-8.002-9.47-.922-.527zm11.14 12.598v.585l2.908 3.45.317-.176-3.224-3.859z" fill="#DC0032"/><path d="M1.525 9.266l9.673 11.429v-.556L2.447 9.821l-.922-.555zm11.89 13.504v.556l2.648 3.156.316-.175-2.965-3.537z" fill="#DB0032"/><path d="M.777 8.827l10.421 12.335v-.555l-9.5-11.224-.92-.556zM13.415 23.21v.555l2.418 2.864.316-.175-2.734-3.244z" fill="#DA0032"/><path d="M.03 8.418l11.168 13.183v-.555L.98 8.944l-.95-.526zm13.385 15.229v.585l2.159 2.543.317-.176-2.476-2.952z" fill="#D90032"/><path d="M0 8.389v.41l11.198 13.24v-.555L.23 8.506 0 8.389zm13.415 15.726v.35a.225.225 0 01-.058.146l1.957 2.31.317-.176-2.216-2.63z" fill="#D80032"/><path d="M0 8.681v.585l11.198 13.241v-.555L0 8.682zm13.386 15.872c-.03.117-.115.234-.202.263l-.029.03 1.9 2.221.317-.175-1.986-2.339z" fill="#D70032"/><path d="M0 9.149v.555l11.198 13.241v-.555L0 9.15zm13.213 15.638c0 .03 0 .03-.029.03l-.288.175 1.9 2.221.317-.175-1.9-2.251z" fill="#D60032"/><path d="M0 9.587v.556l11.198 13.241v-.555L0 9.587zm12.983 15.346l-.346.205 1.929 2.25.317-.204-1.9-2.25z" fill="#D50032"/><path d="M0 10.055v.556l11.198 13.24v-.555L0 10.056zM12.724 25.08l-.202.117c-.057.03-.115.03-.173.03l1.958 2.309.316-.205-1.9-2.25z" fill="#D40032"/><path d="M0 10.494v.555L11.198 24.29v-.555L0 10.494zm11.831 14.585l2.217 2.602.316-.205-1.928-2.25c-.029 0-.087.029-.115.029h-.03c-.085 0-.143-.03-.2-.059l-.26-.117z" fill="#D30032"/><path d="M0 10.932v.585l13.789 16.31.316-.205-2.072-2.455-.634-.35a.407.407 0 01-.201-.352v-.292L0 10.932z" fill="#D20032"/><path d="M0 11.4v.555l13.53 16.018.316-.175L0 11.4z" fill="#D10032"/><path d="M0 11.838v.556l13.27 15.725.317-.175L0 11.838z" fill="#D00032"/><path d="M0 12.277v.584l13.04 15.404.317-.175L0 12.277z" fill="#CF0032"/><path d="M0 12.744v.556l12.781 15.112.317-.176L0 12.744z" fill="#CE0032"/><path d="M0 13.183v.555l12.493 14.79.26-.087.086-.059L0 13.182z" fill="#CD0032"/><path d="M0 13.621v.585l12.12 14.322h.172c.086 0 .173 0 .259-.029L0 13.621z" fill="#CC0032"/><path d="M0 14.089v.555l11.457 13.563.403.234a.68.68 0 00.346.088L0 14.089z" fill="#CB0032"/><path d="M0 14.527v.556l10.709 12.685.95.556L0 14.527z" fill="#CA0032"/><path d="M0 14.995v.555l9.96 11.78.95.555L0 14.995z" fill="#C90032"/><path d="M0 15.433v.556L9.212 26.89l.92.556L0 15.433z" fill="#C80033"/><path d="M0 15.872v.555l8.463 10.026.921.555L0 15.872z" fill="#C70033"/><path d="M0 16.34v.555l7.686 9.09.95.556L0 16.34z" fill="#C60033"/><path d="M0 16.778v.556l6.938 8.213.95.555L0 16.778z" fill="#C50033"/><path d="M0 17.217v.555l6.19 7.337.95.555L0 17.217z" fill="#C40033"/><path d="M0 17.684v.555l5.44 6.431.95.555L0 17.685z" fill="#C30033"/><path d="M0 18.123v.555l4.692 5.554.95.555L0 18.123z" fill="#C20033"/><path d="M0 18.561v.585l3.944 4.647.92.556L0 18.56z" fill="#C10033"/><path d="M0 19.029v.555l3.167 3.77.95.556L0 19.029z" fill="#C00033"/><path d="M0 19.467v.555l2.418 2.894.95.526L0 19.467z" fill="#BF0033"/><path d="M0 19.905v.585l1.67 1.959.95.555L0 19.905z" fill="#BE0033"/><path d="M0 20.373v.556l.921 1.081.95.556L0 20.373z" fill="#BD0033"/><path d="M0 20.812v.146c0 .292.202.643.432.79l.69.38L0 20.811z" fill="#BC0033"/><path d="M.172 21.484c.057.059.086.117.144.146l-.144-.146z" fill="#B03"/></g><defs><clipPath id="clip0_146_2723"><path fill="#fff" d="M0 0h68v29H0z"/></clipPath></defs></svg>