<svg width="14" height="22" fill="none" xmlns="http://www.w3.org/2000/svg"><path fill-rule="evenodd" clip-rule="evenodd" d="M3.4 1.75c-.427 0-.844.177-1.156.502A1.804 1.804 0 001.75 3.5v16.147l4.853-3.033a.75.75 0 01.795 0l4.852 3.033V3.5c0-.474-.181-.922-.494-1.248A1.602 1.602 0 0010.6 1.75H3.4zm-2.238-.537A3.102 3.102 0 013.4.25h7.2c.845 0 1.65.35 2.238.963.587.611.912 1.435.912 2.287V21a.75.75 0 01-1.148.636L7 18.134l-5.603 3.502A.75.75 0 01.25 21V3.5c0-.852.325-1.676.912-2.287z" fill="#1D1D1B"/><path d="M2.244 2.252A1.602 1.602 0 013.4 1.75h7.2c.428 0 .844.177 1.156.502.313.326.494.774.494 1.248v16.147l-4.853-3.033a.75.75 0 00-.795 0L1.75 19.647V3.5c0-.474.181-.922.494-1.248z" fill="#1D1D1B"/><path d="M4 10h6" stroke="#fff" stroke-width="2" stroke-linecap="round"/></svg>