<svg width="17" height="17" fill="none" xmlns="http://www.w3.org/2000/svg"><path d="M16.949 4.996c-.042-.905-.185-1.523-.395-2.064a4.167 4.167 0 00-.98-1.505 4.167 4.167 0 00-1.506-.981c-.541-.21-1.159-.354-2.063-.395C11.098.01 10.808 0 8.5 0S5.902.01 4.996.051C4.09.092 3.473.236 2.932.446a4.166 4.166 0 00-1.505.98 4.167 4.167 0 00-.981 1.506c-.21.54-.354 1.159-.395 2.063C.01 5.902 0 6.192 0 8.5c0 2.309.01 2.598.051 3.505.042.904.185 1.522.395 2.063.214.567.548 1.08.98 1.505.425.433.94.767 1.506.98.541.21 1.159.354 2.064.396.906.041 1.196.051 3.504.051 2.309 0 2.598-.01 3.505-.051.904-.042 1.522-.185 2.063-.395a4.346 4.346 0 002.486-2.486c.21-.54.354-1.159.395-2.063.041-.907.051-1.197.051-3.505s-.01-2.598-.051-3.504zm-1.53 6.939c-.038.829-.176 1.279-.293 1.578a2.815 2.815 0 01-1.613 1.614c-.3.116-.75.254-1.578.292-.896.041-1.165.05-3.435.05s-2.539-.009-3.435-.05c-.828-.038-1.279-.176-1.578-.293a2.635 2.635 0 01-.977-.635 2.634 2.634 0 01-.636-.978c-.117-.3-.255-.75-.293-1.578-.04-.896-.05-1.165-.05-3.435s.01-2.538.05-3.435c.038-.828.176-1.279.293-1.578.136-.37.353-.703.636-.977.274-.283.608-.5.977-.636.3-.117.75-.255 1.578-.293.897-.04 1.165-.05 3.435-.05s2.538.01 3.435.05c.829.038 1.278.176 1.578.293.37.136.703.353.977.636.283.274.5.608.636.977.117.3.255.75.293 1.578.04.897.05 1.165.05 3.435s-.01 2.539-.05 3.435z" fill="#181818"/><path d="M8.5 4.135a4.365 4.365 0 100 8.73 4.365 4.365 0 000-8.73zm0 7.198a2.833 2.833 0 110-5.666 2.833 2.833 0 010 5.666zm5.557-7.37a1.02 1.02 0 11-2.04 0 1.02 1.02 0 012.04 0z" fill="#181818"/></svg>