<svg width="49" height="49" fill="none" xmlns="http://www.w3.org/2000/svg"><path d="M48.853 14.399c-.12-2.608-.534-4.389-1.14-5.947a12.009 12.009 0 00-2.825-4.34 12.011 12.011 0 00-4.34-2.826C38.99.68 37.21.266 34.601.148 31.988.028 31.154 0 24.5 0c-6.654 0-7.488.028-10.101.147-2.608.12-4.389.534-5.947 1.14a12.008 12.008 0 00-4.34 2.825 12.01 12.01 0 00-2.826 4.34C.68 10.01.266 11.79.148 14.398.028 17.012 0 17.846 0 24.499c0 6.655.028 7.49.148 10.102.119 2.608.533 4.389 1.139 5.947a12.006 12.006 0 002.826 4.34 12.005 12.005 0 004.34 2.826c1.557.606 3.338 1.02 5.946 1.139 2.613.119 3.448.147 10.101.147 6.654 0 7.489-.028 10.102-.147 2.607-.12 4.388-.533 5.947-1.14a12.525 12.525 0 007.165-7.165c.606-1.558 1.02-3.339 1.139-5.947.119-2.613.147-3.447.147-10.1 0-6.655-.028-7.49-.147-10.102zM44.443 34.4c-.11 2.388-.508 3.686-.844 4.549a8.113 8.113 0 01-4.65 4.65c-.863.335-2.16.734-4.549.843-2.583.118-3.358.143-9.9.143-6.543 0-7.317-.025-9.9-.143-2.389-.109-3.686-.508-4.55-.843a7.593 7.593 0 01-2.817-1.833 7.59 7.59 0 01-1.832-2.817c-.336-.863-.735-2.16-.844-4.55-.118-2.583-.143-3.358-.143-9.9s.025-7.316.143-9.9c.11-2.389.508-3.686.843-4.55a7.596 7.596 0 011.833-2.817A7.586 7.586 0 0110.051 5.4c.863-.336 2.16-.735 4.549-.844 2.583-.118 3.358-.143 9.9-.143s7.316.025 9.9.144c2.389.108 3.686.508 4.55.843a7.596 7.596 0 012.816 1.832 7.587 7.587 0 011.833 2.818c.336.863.735 2.16.844 4.55.117 2.582.142 3.357.142 9.9 0 6.541-.024 7.316-.142 9.9z" fill="#000" fill-opacity=".4"/><path d="M24.5 11.919c-6.949 0-12.581 5.633-12.581 12.581 0 6.948 5.632 12.581 12.58 12.581 6.95 0 12.582-5.633 12.582-12.58 0-6.95-5.633-12.582-12.581-12.582zm0 20.748a8.167 8.167 0 110-16.333 8.167 8.167 0 010 16.333zm16.018-21.245a2.94 2.94 0 11-5.88 0 2.94 2.94 0 015.88 0z" fill="#000" fill-opacity=".4"/></svg>