<svg width="70" height="83" fill="none" xmlns="http://www.w3.org/2000/svg"><g clip-path="url(#clip0_195_193)" fill="#1D1D1B"><path d="M35.195 82.995l-.183-.082L0 67.16V16.116L34.998 0 69.99 16.116V67.16L35.195 82.995zM2.163 65.76l33.008 14.867 32.646-14.862V17.69l-32.82 14.606L2.164 17.69v48.07z"/><path d="M47.698 34.704h3.7l6.711 11.802V34.704H61.4V51.63h-3.532l-6.86-12.01v12.01h-3.31V34.704zm-19.479 0h3.58v32.894a5.88 5.88 0 00.409 2.547c.429.966 1.359 1.424 2.79 1.424 1.43 0 2.35-.483 2.775-1.424a5.882 5.882 0 00.414-2.547V34.704h3.59v32.903c0 1.795-.28 3.2-.839 4.203-1.034 1.84-3.014 2.759-5.94 2.755-2.926-.003-4.908-.921-5.946-2.755-.554-1.004-.833-2.413-.833-4.203V34.704zM8.537 61.86v-4.275h.887v1.631h1.657v-1.63h.887v4.275h-.887v-1.906H9.424v1.906h-.887zm13.1-.376a1.86 1.86 0 01-1.397.483 1.86 1.86 0 01-1.402-.483 2.333 2.333 0 01-.645-1.766 2.288 2.288 0 01.645-1.766 1.863 1.863 0 011.402-.483 1.856 1.856 0 011.397.483 2.267 2.267 0 01.646 1.766 2.315 2.315 0 01-.646 1.766zm-.559-.651c.228-.325.338-.718.314-1.115a1.772 1.772 0 00-.314-1.115 1.016 1.016 0 00-.838-.39 1.035 1.035 0 00-.848.39 2.14 2.14 0 000 2.23 1.037 1.037 0 00.848.39 1.015 1.015 0 00.838-.39zm27.492-.29c.012.158.067.31.159.44a.964.964 0 00.761.26c.177.005.355-.018.525-.068a.482.482 0 00.38-.482.367.367 0 00-.187-.328 1.992 1.992 0 00-.593-.198l-.482-.101a2.934 2.934 0 01-.934-.329 1.042 1.042 0 01-.434-.926 1.217 1.217 0 01.424-.965 1.78 1.78 0 011.238-.381c.417-.01.827.115 1.166.357a1.273 1.273 0 01.482 1.042h-.858a.618.618 0 00-.342-.55 1.188 1.188 0 00-.534-.106 1.04 1.04 0 00-.564.14.439.439 0 00-.207.39.357.357 0 00.207.339c.18.083.369.143.564.178l.751.178c.265.05.516.155.737.31a1.047 1.047 0 01.386.873 1.242 1.242 0 01-.453.965 1.925 1.925 0 01-1.282.386 2.079 2.079 0 01-1.325-.381 1.26 1.26 0 01-.481-1.047l.896.004zm12.748-2.2h-2.26v.907h2.072v.743h-2.072v1.1h2.361v.768h-3.233v-4.276h3.132v.758zM8.537 34.742h13.746v2.973H12.045v3.88h9.183v2.938h-9.183v7.098H8.537V34.742z"/></g><defs><clipPath id="clip0_195_193"><path fill="#fff" d="M0 0h70v83H0z"/></clipPath></defs></svg>