<svg width="22" height="25" fill="none" xmlns="http://www.w3.org/2000/svg"><path d="M7.25 10.954c0 .99.395 1.94 1.098 2.64a3.759 3.759 0 005.304 0 3.724 3.724 0 000-5.28 3.759 3.759 0 00-5.304 0 3.724 3.724 0 00-1.098 2.64z" stroke="#1D1D1B" stroke-width="1.2" stroke-linecap="round" stroke-linejoin="round"/><path d="M18.071 17.993l-5.304 5.279a2.506 2.506 0 01-3.533 0l-5.305-5.28a9.94 9.94 0 01-2.737-5.096 9.912 9.912 0 01.57-5.751 9.964 9.964 0 013.682-4.467 10.033 10.033 0 0111.112 0 9.963 9.963 0 013.683 4.467 9.912 9.912 0 01.569 5.75 9.94 9.94 0 01-2.737 5.098z" stroke="#1D1D1B" stroke-width="1.2" stroke-linecap="round" stroke-linejoin="round"/></svg>