<svg width="51" height="40" fill="none" xmlns="http://www.w3.org/2000/svg"><path d="M23.187 40h-1.53a3.219 3.219 0 01-2.254-.927 3.147 3.147 0 01-.938-2.23v-9.339c.003-.836.34-1.638.938-2.23a3.219 3.219 0 012.254-.926h1.53c.258.002.515.034.765.096a3.18 3.18 0 011.751 1.113c.44.556.679 1.242.676 1.947v9.34a3.147 3.147 0 01-.937 2.229 3.219 3.219 0 01-2.255.927zm-1.53-13.913a1.448 1.448 0 00-1.013.415 1.418 1.418 0 00-.42 1.002v9.34c0 .375.151.736.42 1.002s.633.415 1.013.415h1.53c.38 0 .745-.15 1.014-.415a1.41 1.41 0 00.42-1.002v-9.34c0-.316-.108-.623-.306-.872a1.435 1.435 0 00-.785-.502 1.61 1.61 0 00-.343 0l-1.53-.043zM47.808 40h-1.53a3.219 3.219 0 01-2.254-.927 3.147 3.147 0 01-.938-2.23v-9.339a3.117 3.117 0 01.677-1.947 3.178 3.178 0 011.75-1.113c.25-.062.507-.094.765-.096h1.53a3.219 3.219 0 012.255.927c.598.591.935 1.393.937 2.23v9.338a3.148 3.148 0 01-.937 2.23 3.219 3.219 0 01-2.255.927zm-1.53-13.913a1.598 1.598 0 00-.343 0c-.318.077-.6.26-.798.518a1.407 1.407 0 00-.292.9v9.338c0 .376.15.737.42 1.003.268.266.633.415 1.013.415h1.53c.38 0 .745-.15 1.014-.415a1.41 1.41 0 00.42-1.002v-9.34a1.404 1.404 0 00-.42-1.002 1.436 1.436 0 00-1.014-.415h-1.53zm-29.571 9.565H0V25.217h16.707v10.435zM1.759 33.913h13.19v-6.956H1.758v6.956z" fill="#000"/><path d="M14.948 33.913h1.759V40h-1.759v-6.087zM0 33.913h1.759V40H0v-6.087zM42.207 40H27.259c-.7 0-1.371-.275-1.866-.764a2.594 2.594 0 01-.772-1.845v-5.217h20.224v5.217c0 .692-.278 1.356-.773 1.845a2.653 2.653 0 01-1.865.764zm-15.828-6.087v3.478c0 .23.093.452.258.615a.884.884 0 00.622.255h14.948a.884.884 0 00.622-.255.865.865 0 00.257-.615v-3.478H26.38z" fill="#000"/><path d="M44.845 33.913H24.62v-2.609c0-1.153.463-2.259 1.287-3.074a4.422 4.422 0 013.11-1.274h11.43c1.166 0 2.285.459 3.11 1.274a4.323 4.323 0 011.287 3.074v2.609zm-18.466-1.74h16.707v-.869c0-.691-.278-1.355-.772-1.844a2.653 2.653 0 00-1.866-.764h-11.43c-.7 0-1.371.274-1.866.764a2.594 2.594 0 00-.773 1.844v.87z" fill="#000"/><path d="M44.845 31.304h-1.759c0-.691-.278-1.355-.772-1.844a2.653 2.653 0 00-1.866-.764h-11.43c-.7 0-1.371.274-1.866.764a2.594 2.594 0 00-.773 1.844h-1.758v-3.8c0-.316-.108-.623-.306-.872a1.435 1.435 0 00-.785-.502l-.668-.156V19.13c0-1.614.649-3.162 1.803-4.304a6.19 6.19 0 014.352-1.783h11.431a6.19 6.19 0 014.353 1.783 6.053 6.053 0 011.802 4.304v6.844l-.668.156c-.31.076-.587.253-.784.502a1.408 1.408 0 00-.306.872v3.8zm-15.828-4.348h11.431c.952 0 1.877.306 2.638.87v-.322a3.105 3.105 0 01.472-1.657c.31-.498.757-.9 1.287-1.16V19.13a4.323 4.323 0 00-1.288-3.074 4.422 4.422 0 00-3.109-1.273h-11.43a4.422 4.422 0 00-3.11 1.273 4.323 4.323 0 00-1.287 3.074v5.557c.53.26.976.662 1.287 1.16.31.498.474 1.072.471 1.657v.322a4.429 4.429 0 012.638-.87zM6.155 29.565h4.397v1.74H6.155v-1.74zm5.056-2.609H5.496L3.227 19.13H13.48l-2.269 7.826zm-4.396-1.739h3.077l1.249-4.347H5.566l1.249 4.347z" fill="#000"/><path d="M8.353 20.87a3.48 3.48 0 01-.668-.07 7.141 7.141 0 01-4.228-2.379 6.998 6.998 0 01-1.698-4.508v-.87h.879a7.03 7.03 0 014.484 1.583l.326.252v.409a5.254 5.254 0 00.905 2.974 5.264 5.264 0 00.941-2.965v-.409l.326-.252a7.03 7.03 0 014.449-1.591h.88v.869a6.963 6.963 0 01-1.708 4.588 7.109 7.109 0 01-4.325 2.369 2.876 2.876 0 01-.563 0zm2.682-5.174a6.9 6.9 0 01-.879 2.965 5.266 5.266 0 001.977-1.552 5.19 5.19 0 001.022-2.283 5.194 5.194 0 00-2.12.878v-.008zm-7.465-.87A5.32 5.32 0 004.605 17.1a5.397 5.397 0 001.963 1.562 6.977 6.977 0 01-.879-2.965 5.192 5.192 0 00-2.119-.861v-.009z" fill="#000"/><path d="M8.353 20.791l-.624-.608a6.984 6.984 0 01-2.067-5.288 6.998 6.998 0 012.067-4.643l.624-.609.625.61a6.95 6.95 0 011.542 2.276c.356.852.537 1.766.533 2.688v.044a6.91 6.91 0 01-1.618 4.417 9.156 9.156 0 01-.457.505l-.625.608zm0-8.574a5.263 5.263 0 00-.94 3c0 1.071.328 2.117.94 3a5.264 5.264 0 00.941-2.965 5.177 5.177 0 00-.94-3.035zm10.112-2.652h1.76v20.87h-1.76V9.565z" fill="#000"/><path d="M26.467 11.304H12.222L13.27 0h12.15l1.046 11.304zm-12.31-1.739h10.376L23.82 1.74h-8.95l-.713 7.826z" fill="#000"/></svg>