<svg width="42" height="42" fill="none" xmlns="http://www.w3.org/2000/svg"><path d="M24.402 41H41V7.805M24.402 41V7.805m0 33.195H1V21.083M24.402 41V21.083m0 19.917h-6.639V26.062h6.64m0 14.938V26.062m0-18.257H41m-16.598 0v13.278M41 7.805v13.278H24.402m0 0H1m23.402 0v4.98M1 21.082v4.98h23.402M13.448 6.808l5.81 4.98v3.319H1v-3.32L6.81 6.81m6.638 0H6.81m6.64 0V1H6.81v5.81m22.573 9.294v-2.49m0 12.448v2.49m-16.598 3.734v2.49" stroke="#000" stroke-width="1.5" stroke-miterlimit="10" stroke-linecap="round" stroke-linejoin="round"/></svg>