<svg width="42" height="42" fill="none" xmlns="http://www.w3.org/2000/svg"><path d="M1 15.667v-.002C1 7.566 7.566 1 15.665 1h.002v14.667M1 15.667h14.667M1 15.667h29.333v.001c0 8.1-6.566 14.665-14.665 14.665h-.003C7.566 30.333 1 23.767 1 15.668v-.001zm14.667 0L5.295 5.295M9 37c0-2.207-1.793-4-4-4s-4 1.793-4 4 1.793 4 4 4 4-1.793 4-4zm0 0h13.333M7.828 34.172L34.401 7.599A3.866 3.866 0 0141 10.332v.001M22.333 37c0-2.207 1.793-4 4-4 2.208 0 4 1.793 4 4s-1.792 4-4 4c-2.207 0-4-1.793-4-4zm1.526-3.141l-3.526-3.526" stroke="#000" stroke-width="1.5" stroke-miterlimit="10" stroke-linecap="round" stroke-linejoin="round"/></svg>