<svg width="43" height="43" fill="none" xmlns="http://www.w3.org/2000/svg"><path d="M5.556 10.111a4.556 4.556 0 114.555-4.555M5.556 10.11a4.556 4.556 0 004.555-4.555M5.556 10.11v22.78M10.11 5.556h22.78m0 0a4.555 4.555 0 004.555 4.555M32.89 5.556a4.555 4.555 0 114.555 4.555m0 0V32.89m-27.333 4.555a4.555 4.555 0 11-4.555-4.555m4.555 4.555a4.555 4.555 0 00-4.555-4.555m4.555 4.555H32.89m0 0a4.555 4.555 0 104.555-4.555m-4.555 4.555a4.555 4.555 0 014.555-4.555" stroke="#1D1D1B" stroke-width="1.5" stroke-linecap="round" stroke-linejoin="round"/><path d="M12.628 26v-7.65l-1.755 1.072v-1.729l1.755-1.053h1.6V26h-1.6zm7.442.195c-.663 0-1.247-.14-1.755-.422a3.077 3.077 0 01-1.189-1.19c-.282-.507-.423-1.092-.423-1.755v-3.016c0-.663.141-1.248.423-1.755a3.032 3.032 0 011.19-1.183c.507-.286 1.091-.429 1.755-.429.662 0 1.245.143 1.748.429.507.282.904.676 1.19 1.183.285.507.428 1.092.428 1.755v3.016c0 .663-.143 1.248-.428 1.755a3.077 3.077 0 01-1.19 1.19c-.503.281-1.085.422-1.748.422zm0-1.489c.33 0 .629-.078.898-.233.268-.16.48-.373.637-.637.155-.27.233-.568.233-.897v-3.244c0-.334-.078-.633-.233-.897a1.728 1.728 0 00-.637-.637 1.718 1.718 0 00-.898-.24c-.329 0-.628.08-.896.24a1.727 1.727 0 00-.637.637 1.731 1.731 0 00-.235.897v3.244c0 .329.079.628.235.896a1.753 1.753 0 001.534.871zm8.557 1.489c-.663 0-1.248-.14-1.755-.422a3.077 3.077 0 01-1.19-1.19c-.281-.507-.422-1.092-.422-1.755v-3.016c0-.663.14-1.248.423-1.755a3.032 3.032 0 011.19-1.183c.506-.286 1.091-.429 1.754-.429s1.246.143 1.749.429c.507.282.903.676 1.19 1.183.285.507.428 1.092.428 1.755v3.016c0 .663-.143 1.248-.429 1.755a3.077 3.077 0 01-1.19 1.19c-.502.281-1.085.422-1.748.422zm0-1.489c.33 0 .628-.078.897-.233.269-.16.481-.373.637-.637.156-.27.234-.568.234-.897v-3.244a1.73 1.73 0 00-.234-.897 1.727 1.727 0 00-.637-.637 1.718 1.718 0 00-.897-.24c-.33 0-.628.08-.897.24a1.727 1.727 0 00-.637.637 1.731 1.731 0 00-.234.897v3.244a1.75 1.75 0 00.871 1.533c.269.156.568.234.897.234z" fill="#000"/></svg>