<svg width="43" height="43" fill="none" xmlns="http://www.w3.org/2000/svg"><path d="M5.556 10.111a4.556 4.556 0 114.555-4.555M5.556 10.11a4.556 4.556 0 004.555-4.555M5.556 10.11v22.78M10.11 5.556h22.78m0 0a4.555 4.555 0 004.555 4.555M32.89 5.556a4.555 4.555 0 114.555 4.555m0 0V32.89m-27.333 4.555a4.555 4.555 0 11-4.555-4.555m4.555 4.555a4.555 4.555 0 00-4.555-4.555m4.555 4.555H32.89m0 0a4.555 4.555 0 104.555-4.555m-4.555 4.555a4.555 4.555 0 014.555-4.555" stroke="#1D1D1B" stroke-width="1.5" stroke-linecap="round" stroke-linejoin="round"/><path d="M17.099 26.195c-.477 0-.921-.098-1.333-.293a3.281 3.281 0 01-1.066-.819 3.177 3.177 0 01-.637-1.208l1.508-.404c.06.252.171.468.332.65.164.183.355.323.572.423.22.1.448.15.682.15.303 0 .58-.074.832-.221a1.615 1.615 0 00.819-1.424 1.55 1.55 0 00-.227-.825 1.599 1.599 0 00-.598-.592 1.603 1.603 0 00-.826-.221c-.36 0-.659.065-.897.195a1.94 1.94 0 00-.54.416l-1.338-.429.286-4.953h5.083v1.469h-4.245l.585-.553-.208 3.445-.286-.35c.243-.221.524-.386.845-.494a2.9 2.9 0 01.93-.163c.585 0 1.102.134 1.553.403.455.264.81.626 1.066 1.086.26.459.39.981.39 1.566a2.91 2.91 0 01-.455 1.593 3.378 3.378 0 01-1.202 1.13 3.223 3.223 0 01-1.625.423zm8.208 0c-.663 0-1.248-.14-1.755-.422a3.077 3.077 0 01-1.19-1.19c-.28-.507-.422-1.092-.422-1.755v-3.016c0-.663.141-1.248.423-1.755a3.032 3.032 0 011.19-1.183c.506-.286 1.091-.429 1.754-.429s1.246.143 1.749.429c.507.282.903.676 1.19 1.183.285.507.428 1.092.428 1.755v3.016c0 .663-.143 1.248-.429 1.755a3.077 3.077 0 01-1.19 1.19c-.502.281-1.085.422-1.748.422zm0-1.489c.33 0 .629-.078.897-.233.269-.16.481-.373.637-.637.156-.27.234-.568.234-.897v-3.244a1.73 1.73 0 00-.234-.897 1.728 1.728 0 00-.637-.637 1.718 1.718 0 00-.897-.24c-.33 0-.628.08-.897.24a1.727 1.727 0 00-.637.637 1.731 1.731 0 00-.234.897v3.244c0 .329.078.628.234.896.156.265.369.477.637.637.269.156.568.234.897.234z" fill="#000"/></svg>