<svg width="43" height="43" fill="none" xmlns="http://www.w3.org/2000/svg"><path d="M5.556 10.111a4.556 4.556 0 114.555-4.555M5.556 10.11a4.556 4.556 0 004.555-4.555M5.556 10.11v22.78M10.11 5.556h22.78m0 0a4.555 4.555 0 004.555 4.555M32.89 5.556a4.555 4.555 0 114.555 4.555m0 0V32.89m-27.333 4.555a4.555 4.555 0 11-4.555-4.555m4.555 4.555a4.555 4.555 0 00-4.555-4.555m4.555 4.555H32.89m0 0a4.555 4.555 0 104.555-4.555m-4.555 4.555a4.555 4.555 0 014.555-4.555" stroke="#1D1D1B" stroke-width="1.5" stroke-linecap="round" stroke-linejoin="round"/><path d="M14.47 25.987v-1.365l4.003-3.569c.312-.277.529-.539.65-.786a1.61 1.61 0 00.182-.715c0-.312-.067-.59-.201-.832a1.511 1.511 0 00-1.372-.8 1.64 1.64 0 00-.864.228c-.247.147-.44.345-.579.591a1.511 1.511 0 00-.195.8h-1.612c0-.624.139-1.168.416-1.632a2.894 2.894 0 011.157-1.079c.494-.255 1.064-.383 1.71-.383.598 0 1.135.134 1.612.403a2.9 2.9 0 011.124 1.105c.273.468.41 1.008.41 1.619 0 .446-.06.82-.182 1.124a2.636 2.636 0 01-.546.838c-.238.256-.535.54-.89.852l-2.841 2.515-.143-.39h4.602v1.476h-6.442zm10.779.208c-.477 0-.92-.098-1.332-.293a3.281 3.281 0 01-1.067-.819 3.177 3.177 0 01-.637-1.208l1.508-.404c.061.252.172.468.332.65.165.183.355.323.572.423.221.1.448.15.683.15.303 0 .58-.074.832-.221a1.615 1.615 0 00.819-1.424c0-.303-.076-.578-.228-.825a1.6 1.6 0 00-.598-.592 1.604 1.604 0 00-.825-.221c-.36 0-.66.065-.898.195-.233.13-.413.269-.539.416l-1.339-.429.286-4.953h5.083v1.469h-4.244l.584-.553-.207 3.445-.287-.35c.243-.221.525-.386.846-.494.32-.109.63-.163.929-.163.585 0 1.103.134 1.554.403.454.264.81.626 1.066 1.086.26.459.39.981.39 1.566 0 .585-.152 1.116-.456 1.593a3.378 3.378 0 01-1.202 1.13 3.223 3.223 0 01-1.625.423z" fill="#000"/></svg>