<svg width="125" height="125" fill="none" xmlns="http://www.w3.org/2000/svg"><path d="M106.427 64.319l9.637-1.49-.215 1.63-6.946.966 6.447 2.725-.202 1.632-6.946.966 6.459 2.726-.215 1.63-8.923-3.929.202-1.533 6.85-1.032-6.35-2.758.202-1.533zm-1.403 9.279l7.726 6.051-.806 2.148-9.8-.525.567-1.51 8.803.444-.123.328-6.934-5.427.567-1.509zm1.321 2.252l1.369.514-1.726 4.6-1.37-.513 1.727-4.6zm-5.71 7.923l6.794 4.013 1.54-2.608 1.265.747-3.878 6.565-1.265-.747 1.541-2.608-6.794-4.014.797-1.348zM95.328 90.9c.617-.704 1.3-1.173 2.045-1.406a4.08 4.08 0 012.306-.027c.785.216 1.541.643 2.267 1.28.727.637 1.248 1.33 1.565 2.08.313.754.403 1.516.269 2.286-.13.773-.504 1.511-1.121 2.215-.712.811-1.508 1.309-2.39 1.492-.878.187-1.757.088-2.636-.297l.714-1.474c.58.266 1.142.347 1.688.244.55-.1 1.054-.413 1.514-.938.415-.472.654-.96.72-1.46.062-.5-.029-.997-.273-1.494-.244-.49-.622-.963-1.134-1.418-.515-.451-1.033-.767-1.554-.948a2.584 2.584 0 00-1.516-.067c-.489.13-.94.432-1.354.904-.46.525-.704 1.066-.732 1.624-.028.557.126 1.104.462 1.641l-1.369.9c-.496-.82-.71-1.68-.643-2.578.07-.895.46-1.749 1.172-2.56zm-3.331 3.92l5.643 7.468-1.25.945-2.375-3.143-3.536 2.673 2.375 3.143-1.245.94-5.643-7.467 1.244-.94 2.383 3.152 3.537-2.673-2.383-3.153 1.25-.944zm-12.759 7.906l2.91 7.335 2.816-1.118.541 1.366-7.087 2.812-.542-1.366 2.816-1.117-2.91-7.334 1.456-.578zm-4.588 1.809l1.754 9.194-1.538.294-.738-3.869-4.355.83.738 3.869-1.532.293-1.754-9.195 1.532-.292.74 3.882 4.355-.83-.74-3.882 1.539-.294zm-9.064 1.522l.072 9.36-6.045.047-.011-1.469 4.478-.035-.017-2.307-3.699.028-.011-1.469 3.698-.028-.02-2.646-4.479.035-.011-1.469 6.045-.047zm-13.041-1.048l.512 9.801-1.56-.404-.428-8.207-4.387 6.961-1.56-.403 5.202-8.322 2.221.574zm-6.121-1.883l-3.55 8.661-1.449-.594 3.55-8.661 1.449.594zm-3.029-1.121l-4.76 8.059-2.57-1.517c-.066-.04-.198-.12-.393-.241-.2-.123-.386-.25-.56-.383-.589-.459-.993-1.005-1.213-1.638a4.023 4.023 0 01-.171-2.011 5.9 5.9 0 01.773-2.088 5.905 5.905 0 011.455-1.684 4.074 4.074 0 011.847-.826c.659-.11 1.331-.017 2.018.278.196.086.396.186.6.301.203.116.338.193.405.233l2.57 1.517zm-2.122.461l-1.197-.708a12.084 12.084 0 00-.432-.24 3.656 3.656 0 00-.494-.224 1.854 1.854 0 00-1.23-.04 2.917 2.917 0 00-1.105.669 4.86 4.86 0 00-.887 1.106 4.941 4.941 0 00-.554 1.334 2.817 2.817 0 00-.035 1.286c.085.402.293.749.624 1.04.116.109.261.217.434.325.168.109.307.196.42.262l1.197.708 3.26-5.518zm-5.663-5.3l-6.172 7.038-4.545-3.986.968-1.105 3.367 2.953 1.522-1.735-2.78-2.438.968-1.105 2.78 2.439 1.745-1.989-3.367-2.953.969-1.104 4.544 3.986zm-7.694-7.985c.578.737.913 1.493 1.005 2.27a4.082 4.082 0 01-.4 2.27c-.356.733-.915 1.397-1.675 1.993-.76.597-1.538.981-2.333 1.154a4.04 4.04 0 01-2.296-.157c-.736-.27-1.393-.774-1.97-1.51-.578-.737-.912-1.494-1-2.274a3.985 3.985 0 01.394-2.267c.354-.735.911-1.4 1.672-1.997.76-.597 1.539-.98 2.337-1.149a4.027 4.027 0 012.301.153c.733.273 1.388.778 1.965 1.514zm-1.16.911c-.385-.497-.816-.822-1.295-.975-.48-.157-.986-.16-1.517-.007-.534.148-1.07.434-1.608.857-.539.422-.94.872-1.205 1.35-.27.476-.386.967-.348 1.472.035.5.243 1.001.624 1.5.385.498.816.823 1.294.976.479.154.985.156 1.518.007.53-.152 1.065-.44 1.604-.862.539-.422.943-.872 1.214-1.349.267-.474.383-.961.347-1.462-.038-.505-.247-1.007-.628-1.507zm-8.583-14.205c.101.332.116.658.046.978-.07.32-.213.602-.43.844-.221.24-.498.41-.83.51a1.775 1.775 0 01-.975.032 1.787 1.787 0 01-.825-.457 1.884 1.884 0 01-.506-.838 1.739 1.739 0 01-.03-.928 1.81 1.81 0 011.265-1.335c.332-.101.656-.114.974-.038.313.077.587.225.82.444.233.214.397.477.491.788zm.037-15.181L8.603 62.38l.183-1.634 6.926-1.1-6.497-2.6.17-1.636 6.926-1.1-6.51-2.6.183-1.635 8.997 3.757-.173 1.537-6.828 1.163 6.402 2.636-.172 1.537zm1.162-9.098l-7.861-5.876.757-2.166 9.81.305-.533 1.521-8.81-.244.115-.331 7.054 5.27-.532 1.52zM18 49.386l-1.38-.483 1.622-4.638 1.38.482L18 49.386zm5.591-8.195l-6.867-3.887-1.492 2.636-1.278-.724 3.756-6.635 1.278.724-1.492 2.636 6.867 3.887-.772 1.363zm5.023-7.073c-.601.717-1.273 1.2-2.014 1.45a4.082 4.082 0 01-2.304.077c-.79-.199-1.555-.609-2.295-1.23-.74-.62-1.277-1.303-1.61-2.046a4.04 4.04 0 01-.318-2.279c.113-.776.47-1.522 1.072-2.24.694-.826 1.48-1.34 2.357-1.543.874-.206 1.754-.126 2.641.24l-.681 1.49c-.585-.254-1.15-.323-1.693-.208-.547.113-1.045.436-1.493.97-.404.482-.633.974-.688 1.477-.051.5.05.995.306 1.486.254.486.643.95 1.164 1.394.525.44 1.05.744 1.575.914.525.163 1.03.174 1.516.033.486-.14.931-.452 1.335-.933.448-.535.68-1.08.696-1.639.016-.558-.15-1.102-.498-1.631l1.35-.93c.513.81.746 1.665.699 2.564-.05.896-.423 1.758-1.117 2.584zm3.339-4.127l-5.778-7.363 1.232-.967 2.432 3.098 3.487-2.736-2.431-3.1 1.227-.962 5.778 7.363-1.227.963-2.44-3.109-3.487 2.737 2.44 3.109-1.233.967zm12.625-8.189l-3.047-7.28-2.794 1.17-.567-1.355 7.033-2.944.567 1.355-2.794 1.17 3.047 7.28-1.445.604zm4.382-1.862l-1.964-9.152 1.532-.329.827 3.852 4.334-.93-.827-3.852 1.526-.327 1.964 9.152-1.526.327-.829-3.864-4.334.93.829 3.864-1.532.329zm8.939-1.755l-.253-9.356 6.043-.164.04 1.469-4.477.12.062 2.307 3.697-.1.04 1.469-3.697.1.071 2.644 4.477-.12.04 1.468-6.043.163zm13.164.732l-.698-9.789 1.568.374.583 8.199 4.254-7.045 1.568.375-5.043 8.419-2.232-.533zm6.254 1.767l3.387-8.726 1.46.567-3.386 8.726-1.46-.567zm3.069 1.044l4.611-8.145 2.596 1.47c.068.038.201.116.399.233.201.12.39.243.566.373.597.448 1.012.986 1.244 1.615.237.628.306 1.297.207 2.008a5.895 5.895 0 01-.734 2.101 5.89 5.89 0 01-1.424 1.711c-.559.45-1.17.737-1.831.86-.657.122-1.33.042-2.023-.24a6.474 6.474 0 01-.605-.29 31.85 31.85 0 01-.41-.226l-2.596-1.47zm2.112-.499l1.21.685c.114.064.26.142.437.232.182.093.348.165.498.215a1.85 1.85 0 001.23.017c.396-.135.76-.364 1.093-.689.337-.322.626-.696.867-1.122.25-.441.426-.89.53-1.344.102-.454.106-.883.01-1.286a1.874 1.874 0 00-.642-1.029 2.774 2.774 0 00-.441-.316c-.17-.106-.31-.19-.424-.255l-1.21-.685-3.158 5.577zm5.647 5.07l6.017-7.17 4.63 3.886-.944 1.125-3.43-2.879-1.484 1.768 2.833 2.377-.944 1.125-2.833-2.377-1.7 2.026 3.43 2.88-.944 1.125-4.63-3.886zm7.946 7.861c-.594-.724-.945-1.473-1.053-2.247a4.083 4.083 0 01.349-2.28c.34-.74.884-1.415 1.631-2.028s1.517-1.015 2.308-1.205a4.04 4.04 0 012.299.107c.741.254 1.409.743 2.003 1.467.594.723.943 1.474 1.048 2.25a3.976 3.976 0 01-.344 2.276c-.338.743-.88 1.42-1.627 2.033-.747.614-1.518 1.013-2.312 1.2-.792.19-1.56.156-2.304-.102-.738-.258-1.404-.748-1.998-1.472zm1.14-.937c.396.489.834.804 1.316.947.484.146.99.138 1.517-.026.53-.16 1.06-.457 1.589-.892.53-.434.921-.893 1.175-1.376a2.55 2.55 0 00.317-1.479c-.047-.5-.266-.996-.658-1.487-.395-.488-.833-.804-1.315-.947-.482-.143-.987-.134-1.517.026-.528.164-1.056.463-1.585.897-.53.434-.924.893-1.184 1.375-.257.48-.362.97-.316 1.47.05.504.27 1.001.662 1.492zm7.641 10.65a1.911 1.911 0 01-.145-.969 1.84 1.84 0 01.343-.883 1.83 1.83 0 01.774-.591c.323-.136.646-.18.967-.13.325.047.614.17.866.37.257.198.453.458.589.782.125.3.167.607.124.92a1.756 1.756 0 01-.349.866 1.82 1.82 0 01-.774.591c-.32.134-.642.18-.965.136a1.816 1.816 0 01-1.43-1.092z" fill="#000"/></svg>